<?xml version="1.0" encoding="UTF-8" standalone="no"?>
<svg width="42px" height="42px" viewBox="0 0 42 42" version="1.1" xmlns="http://www.w3.org/2000/svg" xmlns:xlink="http://www.w3.org/1999/xlink">
    <!-- Generator: Sketch 41.2 (35397) - http://www.bohemiancoding.com/sketch -->
    <title>Group</title>
    <desc>Created with Sketch.</desc>
    <defs>
        <path d="M51,30 C51,18.4020203 41.5979797,9 30,9 C18.4020203,9 9,18.4020203 9,30 C9,41.5979797 18.4020203,51 30,51 L30,51" id="path-1"></path>
        <mask id="mask-2" maskContentUnits="userSpaceOnUse" maskUnits="objectBoundingBox" x="0" y="0" width="42" height="42" fill="white">
            <use xlink:href="#path-1"></use>
        </mask>
        <path d="M51,30 C51,18.4020203 41.5979797,9 30,9 C18.4020203,9 9,18.4020203 9,30 C9,41.5979797 18.4020203,51 30,51 L30,51" id="path-3"></path>
        <mask id="mask-4" maskContentUnits="userSpaceOnUse" maskUnits="objectBoundingBox" x="0" y="0" width="42" height="42" fill="white">
            <use xlink:href="#path-3"></use>
        </mask>
    </defs>
    <g id="Page-1" stroke="none" stroke-width="1" fill="none" fill-rule="evenodd">
        <g id="07半屏_缓冲加载" transform="translate(-519.000000, -247.000000)" stroke="#FFFFFF" stroke-width="12">
            <g id="Group-3" transform="translate(315.000000, 184.000000)">
                <g id="Group-2" transform="translate(57.000000, 54.000000)">
                    <g id="Group" transform="translate(138.000000, 0.000000)">
                        <use id="Oval" mask="url(#mask-2)" xlink:href="#path-1"></use>
                        <use id="Oval" mask="url(#mask-4)" transform="translate(30.000000, 30.000000) rotate(-315.000000) translate(-30.000000, -30.000000) " xlink:href="#path-3"></use>
                    </g>
                </g>
            </g>
        </g>
    </g>
</svg>