<?xml version="1.0" encoding="UTF-8" standalone="no"?>
<svg width="48px" height="48px" viewBox="0 0 48 48" version="1.1" xmlns="http://www.w3.org/2000/svg" xmlns:xlink="http://www.w3.org/1999/xlink">
    <!-- Generator: Sketch 41.2 (35397) - http://www.bohemiancoding.com/sketch -->
    <title>Combined Shape Copy 3</title>
    <desc>Created with Sketch.</desc>
    <defs></defs>
    <g id="Page-1" stroke="none" stroke-width="1" fill="none" fill-rule="evenodd" fill-opacity="0.6">
        <path d="M3.99816587,16 L3.99816587,9.98899521 C3.99816587,6.68158052 6.68232307,3.99816587 9.98899521,3.99816587 L16,3.99816587 L16,0 L9.98899521,0 C4.47444462,0 0,4.47320682 0,9.98899521 L0,16 L3.99816587,16 Z M43.9977695,16 L43.9977695,9.98899521 C43.9977695,6.68158052 41.3136123,3.99816587 38.0069401,3.99816587 L31.9959353,3.99816587 L31.9959353,0 L38.0069401,0 C43.5214907,0 47.9959353,4.47320682 47.9959353,9.98899521 L47.9959353,16 L43.9977695,16 Z M43.9977695,32 L43.9977695,38.0110048 C43.9977695,41.3184195 41.3136123,44.0018341 38.0069401,44.0018341 L31.9959353,44.0018341 L31.9959353,48 L38.0069401,48 C43.5214907,48 47.9959353,43.5267932 47.9959353,38.0110048 L47.9959353,32 L43.9977695,32 Z M3.99816587,32 L3.99816587,38.0110048 C3.99816587,41.3184195 6.68232307,44.0018341 9.98899521,44.0018341 L16,44.0018341 L16,48 L9.98899521,48 C4.47444462,48 3.40368579e-16,43.5267932 -3.35120681e-16,38.0110048 L-1.07125646e-15,32 L3.99816587,32 Z" id="Combined-Shape-Copy-3" fill="#FFFFFF"></path>
    </g>
</svg>