<?xml version="1.0" encoding="UTF-8" standalone="no"?>
<svg width="72px" height="72px" viewBox="0 0 72 72" version="1.1" xmlns="http://www.w3.org/2000/svg" xmlns:xlink="http://www.w3.org/1999/xlink">
    <!-- Generator: Sketch 41.2 (35397) - http://www.bohemiancoding.com/sketch -->
    <title>Group 4</title>
    <desc>Created with Sketch.</desc>
    <defs>
        <path d="M35.9196639,0 C16.0818674,0 0,16.0818674 0,35.9196639 C0,55.7574605 16.0818674,71.8393278 35.9196639,71.8393278 C55.7574605,71.8393278 71.8393278,55.7574605 71.8393278,35.9196639 C71.8393278,16.0818674 55.7574605,0 35.9196639,0 Z" id="path-1"></path>
        <mask id="mask-2" maskContentUnits="userSpaceOnUse" maskUnits="objectBoundingBox" x="0" y="0" width="71.8393278" height="71.8393278" fill="white">
            <use xlink:href="#path-1"></use>
        </mask>
    </defs>
    <g id="Page-1" stroke="none" stroke-width="1" fill="none" fill-rule="evenodd">
        <g id="09半屏_加载失败" transform="translate(-501.000000, -228.000000)">
            <g id="Group-3" transform="translate(315.000000, 184.000000)">
                <g id="Group" transform="translate(99.000000, 44.000000)">
                    <g id="Group-4" transform="translate(87.000000, 0.000000)">
                        <use id="Path" stroke="#FFFFFF" mask="url(#mask-2)" stroke-width="8" xlink:href="#path-1"></use>
                        <path d="M49.752897,35.4983003 C48.3524526,35.4983003 47.2173913,34.363239 47.2173913,32.9627947 L47.2173913,23.6659405 C47.2173913,22.2654961 48.3524526,21.1304348 49.752897,21.1304348 C51.1533414,21.1304348 52.2884027,22.2654961 52.2884027,23.6659405 L52.2884027,32.9627947 C52.2884027,34.363239 51.1533414,35.4983003 49.752897,35.4983003 Z M48.3746232,52.4617791 C49.1783786,53.6086727 48.8994729,55.1899831 47.7525792,55.9928933 C46.6056854,56.7966485 45.0243751,56.517743 44.221465,55.3708492 C43.4177096,54.2239555 37.4601164,53.1015717 36.1560214,53.0711456 C34.7564222,53.0390292 28.8943331,54.2239555 28.0905778,55.3708492 C27.2876677,56.517743 25.7063572,56.7966485 24.5594635,55.9928933 C23.4125697,55.1899831 23.1336642,53.6086727 23.9374194,52.4617791 C24.7403295,51.3148853 31.1881206,47.9756242 36.1560214,48.0001342 C41.5067835,48.0263344 47.5717131,51.3148853 48.3746232,52.4617791 Z M21.8398535,35.4983003 C20.4394092,35.4983003 19.3043478,34.363239 19.3043478,32.9627947 L19.3043478,23.6659405 C19.3043478,22.2654961 20.4394092,21.1304348 21.8398535,21.1304348 C23.2402978,21.1304348 24.3753592,22.2654961 24.3753592,23.6659405 L24.3753592,32.9627947 C24.3753592,34.363239 23.2402978,35.4983003 21.8398535,35.4983003 Z" id="Combined-Shape" fill="#FFFFFF"></path>
                    </g>
                </g>
            </g>
        </g>
    </g>
</svg>