<?xml version="1.0" encoding="UTF-8" standalone="no"?>
<svg width="38px" height="48px" viewBox="0 0 38 48" version="1.1" xmlns="http://www.w3.org/2000/svg" xmlns:xlink="http://www.w3.org/1999/xlink">
    <!-- Generator: Sketch 41.2 (35397) - http://www.bohemiancoding.com/sketch -->
    <title>Slice Copy</title>
    <desc>Created with Sketch.</desc>
    <defs></defs>
    <g id="Page-1" stroke="none" stroke-width="1" fill="none" fill-rule="evenodd">
        <path d="M0,3.00261497 C0,1.34431651 1.3486445,0 3.00032973,0 L6.99967027,0 C8.65670662,0 10,1.33389258 10,3.00261497 L10,44.997385 C10,46.6556835 8.6513555,48 6.99967027,48 L3.00032973,48 C1.34329338,48 0,46.6661074 0,44.997385 L0,3.00261497 Z M25,3.00261497 C25,1.34431651 26.3486445,0 28.0003297,0 L31.9996703,0 C33.6567066,0 35,1.33389258 35,3.00261497 L35,44.997385 C35,46.6556835 33.6513555,48 31.9996703,48 L28.0003297,48 C26.3432934,48 25,46.6661074 25,44.997385 L25,3.00261497 Z" id="Combined-Shape" fill="#FFFFFF"></path>
    </g>
</svg>